<svg version="1.2" xmlns="http://www.w3.org/2000/svg" viewBox="0 0 800 800" width="80" height="80">
	<title>csharp</title>
	<style>
		.s0 { fill: #8a2be2 } 
		.s1 { fill: #ffffff } 
	</style>
	<path class="s0" d="m692.4 575c4.7-8.5 7.6-18 7.6-26.5v-297c0-8.5-2.9-18-7.6-26.5l-292.4 175z"/>
	<path class="s0" d="m426 743.6l248-148.5c7.2-4.3 13.7-11.6 18.4-20.1l-292.4-175-292.4 175c4.7 8.5 11.2 15.8 18.4 20.1l248 148.5c14.3 8.5 37.7 8.5 52 0z"/>
	<path class="s0" d="m692.4 225c-4.7-8.5-11.2-15.8-18.4-20.1l-248-148.5c-14.3-8.5-37.7-8.5-52 0l-248 148.5c-14.3 8.5-26 29.5-26 46.6v297c0 8.5 2.9 18 7.6 26.5l292.4-175z"/>
	<path class="s1" d="m401 600c-110.8 0-201-89.7-201-200 0-110.3 90.2-200 201-200 70.1 0 135.7 36.9 172 96.5l-86.1 51.7c-18.2-29.8-50.9-48.2-85.9-48.2-55.4 0-100.5 44.9-100.5 100 0 55.1 45.1 100 100.5 100 34.9 0 67.6-18.3 85.8-47.9l86.2 51.3c-36.3 59.7-101.8 96.6-172 96.6z"/>
	<path fill-rule="evenodd" class="s1" d="m650 325v24.9h25v25.1h-25v50h25v25h-25v25h-25v-25h-50v25h-25v-25h-25v-25.1h25v-49.9h-25v-25.1h25v-24.9h25v24.9h50v-24.9zm-25 100v-50h-50v49.9z"/>
</svg>