<svg version="1.2" xmlns="http://www.w3.org/2000/svg" viewBox="0 0 800 800" width="80" height="80">
	<title>css3-02</title>
	<style>
		.s0 { fill: #5e17eb } 
	</style>
	<g id="c133de6af664cd4f011a55de6b001b19">
		<path class="s0" d="m754.9 0.8l-66.6 720.8-288.3 77.6-288.3-77.6-66.6-720.8zm-134.1 146.5h-221-224.9l10.7 87.1h214.2 12l-12 5-206.3 85.9 6.8 85.1 199.5 0.7 106.9 0.3-6.8 113.5-100.1 28.1-0.8 0.2-96.7-24.4-5.8-70.4h-0.4-89.6-0.3l11.7 135.9 181.9 53.8v-0.1l0.3 0.1 181-52.8 23.5-270h-204.8-0.5l0.5-0.2 212.3-90.7z"/>
	</g>
</svg>