<svg version="1.2" xmlns="http://www.w3.org/2000/svg" viewBox="0 0 800 800" width="80" height="80">
	<title>git</title>
	<style>
		.s0 { fill: #5e17eb } 
		.s1 { fill: #ffffff } 
	</style>
	<path class="s0" d="m64.6 435.3c-19.5-19.5-19.5-51.1 0-70.6l300.1-300.1c19.5-19.5 51.1-19.5 70.6 0l300.1 300.1c19.5 19.5 19.5 51.1 0 70.6l-300.1 300.1c-19.5 19.5-51.1 19.5-70.6 0z"/>
	<path class="s1" d="m303.7 126.5l-30.4 30.4 78.5 78.5c-3.2 6.8-4.9 14.4-4.9 22.4 0 22.8 14.3 42.2 34.3 49.7v192c-20 7.6-34.3 27-34.3 49.7 0 29.4 23.8 53.1 53.1 53.1 29.3 0 53.1-23.7 53.1-53.1 0-20.6-11.7-38.5-28.9-47.3v-194.1l75 75c-3 6.7-4.7 14.1-4.7 21.9 0 29.3 23.8 53.1 53.1 53.1 29.4 0 53.2-23.8 53.2-53.1 0-29.4-23.8-53.1-53.2-53.1-5.7 0-11.1 0.9-16.3 2.5l-80.6-80.5c1.6-5 2.4-10.3 2.4-15.8 0-29.3-23.8-53.1-53.1-53.1-5.5 0-10.8 0.8-15.8 2.4z"/>
</svg>