<svg version="1.2" xmlns="http://www.w3.org/2000/svg" viewBox="0 0 800 800" width="80" height="80">
	<title>html5-02</title>
	<style>
		.s0 { fill: #5e17eb } 
	</style>
	<g id="c133de6af664cd4f011a55de6b0011b2">
		<path class="s0" d="m48 0.8l64.1 718.6 287.5 79.8 288.3-79.9 64.1-718.5zm570.4 170.5l-4 44.7-1.8 19.8h-0.3-212.3-0.3-124.4l8.1 90.3h116.3 0.3 180.8 23.8l-2.2 23.6-20.7 232.1-1.3 14.9-180.4 49.9v0.1l-0.4 0.1-180.5-50.1-12.4-138.4h40.8 47.7l6.3 70.3 98.1 26.5 0.1-0.1 98.3-26.5 10.2-114.3h-108.2-0.3-196.9l-21.7-242.9-2.1-23.6h220.7 0.3 220.5z"/>
	</g>
</svg>