<svg version="1.2" xmlns="http://www.w3.org/2000/svg" viewBox="0 0 800 800" width="80" height="80">
	<title>java</title>
	<style>
		.s0 { fill: #5e17eb } 
	</style>
	<path class="s0" d="m329.2 772.5c135 8.7 342.4-4.8 347.3-68.6 0 0-9.5 24.1-111.6 43.4-56.5 10.2-121.4 16-187.7 16-54.4 0-107.8-3.9-160-11.5l6 0.7c0 0 17.3 14.3 106 20zm145.8-747.4c0 0 77.9 77.9-73.9 197.8-121.7 96.1-27.7 150.9 0 213.5-71.1-64.1-123.2-120.5-88.2-173 51.3-77.2 193.6-114.5 162.1-238.3zm84.8 549.4c140.7-73.1 75.6-143.4 30.3-133.9-6.2 1.2-11.6 2.7-16.9 4.5l0.8-0.2c3-4.2 7.1-7.4 11.8-9.2l0.2-0.1c89.8-31.6 158.9 93.2-29 142.5 1.2-1 2.1-2.2 2.8-3.6 0 0 0 0 0 0zm-244.4-136.7c0 0-136.3 32.4-48.2 44.1 23.7 1.9 51.3 3 79.1 3 35.6 0 70.8-1.8 105.5-5.3l-4.4 0.3c56.5-4.7 113-14.9 113-14.9-13.2 5.8-24.5 12-35.2 18.9l0.9-0.5c-138.3 36.4-405.7 19.5-328.7-17.7 33.9-17.6 74.1-27.9 116.7-27.9q0.7 0 1.4 0c0 0-0.1 0-0.1 0zm313.6 227.9c0 0 21.2 17.4-23.3 30.9-84.7 25.7-352.7 33.4-427.1 1-26.7-11.6 23.5-27.8 39.2-31.1 7.3-1.9 15.7-3 24.3-3q0.8 0 1.7 0.1h-0.1c-29.8-21-192.3 41.1-82.6 58.9 299.3 48.5 545.6-21.9 467.9-56.8zm-194.1-282.1c7.8 9.4 12.6 21.7 12.6 35 0 18-8.7 34-22 44l-0.2 0.1c0 0 91.9-47.4 49.7-106.8-39.4-55.3-69.6-82.8 93.9-177.7 0 0-256.6 64.1-134 205.4zm-151.3 139.3c0.1 0-32.1 23.7 17 28.8 21.5 2.8 46.3 4.3 71.5 4.3 45.6 0 90.1-5.1 132.9-14.7l-4.1 0.8c8.6 8 18.9 14.4 30.2 18.6l0.7 0.2c-177.5 51.9-375.1 4-248.2-38zm18 82.1c0 0-28.6 16.6 20.4 22.2 18 2.7 38.7 4.2 59.8 4.2 33.9 0 66.8-3.9 98.4-11.3l-2.9 0.5c11.7 7.2 25.2 14 39.4 19.6l1.9 0.7c-146.8 62.8-332.2-3.7-217-35.9z"/>
</svg>