<svg version="1.2" xmlns="http://www.w3.org/2000/svg" viewBox="0 0 800 800" width="80" height="80">
	<title>javascript</title>
	<style>
		.s0 { fill: #5e17eb } 
		.s1 { fill: #ffffff } 
	</style>
	<g>
		<path class="s0" d="m0 0h800v800h-800z"/>
		<path class="s1" d="m210.3 668.5l61.3-37c11.8 20.9 22.5 38.6 48.3 38.6 24.7 0 40.3-9.6 40.3-47.2v-255.6h75.2v256.7c0 77.8-45.7 113.3-112.3 113.3-60.1 0-95-31.2-112.8-68.8z"/>
		<path class="s1" d="m476.2 660.5l61.2-35.5c16.1 26.4 37.1 45.7 74.1 45.7 31.2 0 51-15.6 51-37.1 0-25.7-20.4-34.9-54.7-49.9l-18.8-8.1c-54.3-23.1-90.3-52.1-90.3-113.3 0-56.4 43-99.3 110.1-99.3 47.8 0 82.2 16.6 106.9 60.1l-58.5 37.6c-12.9-23.1-26.9-32.2-48.4-32.2-22 0-35.9 14-35.9 32.2 0 22.6 13.9 31.7 46.1 45.7l18.8 8c63.9 27.4 99.9 55.3 99.9 118.2 0 67.6-53.2 104.7-124.6 104.7-69.8 0-114.9-33.3-136.9-76.8z"/>
	</g>
</svg>