<svg version="1.2" xmlns="http://www.w3.org/2000/svg" viewBox="0 0 800 800" width="80" height="80">
	<title>mysql</title>
	<style>
		.s0 { fill: #5e17eb } 
	</style>
	<path class="s0" d="m750.6 378.5c-2-0.2-4.4-0.3-6.8-0.3-12.1 0-23.7 2.3-34.3 6.4l0.6-0.3c-3.1 1.3-8.1 1.3-8.5 5.3 1.7 1.6 2 4.3 3.4 6.6 3 5 6.5 9.2 10.7 12.7l0.1 0.1c4.4 3.4 8.8 6.7 13.4 9.6 8.1 5 17.3 8 25.3 13 4.5 3 9.1 6.7 13.7 9.8 2.3 1.6 3.8 4.4 6.7 5.4v-0.6c-1.4-1.9-1.9-4.6-3.3-6.7-2.1-2.1-4.2-4-6.2-6-6.2-8.2-13.4-15.1-21.5-20.9l-0.3-0.2c-6.6-4.5-21.3-10.9-24-18.6l-0.4-0.5c5.4-0.7 10.3-1.9 15-3.4l-0.6 0.1c7.1-1.8 13.6-1.4 20.9-3.3 3.3-0.8 6.6-1.8 10-2.9v-1.9c-3.8-3.7-6.6-8.8-10.4-12.3-10.3-9-21.5-17.5-33.4-25.1l-1.1-0.6c-6.6-4.2-14.9-6.9-21.8-10.5-2.5-1.2-6.7-1.8-8.1-3.9-3.3-4.7-6.2-10-8.4-15.6l-0.2-0.5q-9.2-17.9-17.1-36.3c-3.6-9.6-7.2-17.5-11.2-25.1l0.5 1.2c-19.6-33-47-59.5-79.7-77.5l-1-0.6c-7.8-3.8-16.7-6.8-26.2-8.5l-0.6-0.1c-5.2-0.2-10.4-0.6-15.6-0.8-3.7-2.4-6.8-4.8-9.8-7.4l0.1 0.1c-11.9-7.5-42.6-23.8-51.3-2.3-5.7 13.6 8.3 26.9 13.1 33.8 3.9 4.6 7.4 9.7 10.4 15.2l0.3 0.4c1.5 3.7 1.8 7.4 3.3 11.2 3.7 11.3 7.3 20.6 11.5 29.5l-0.6-1.5c2.4 5 5 9.2 7.9 13.2l-0.2-0.3c1.7 2.3 4.5 3.3 5.2 7.1-2.1 4.5-3.8 9.8-4.8 15.2v0.4c-2.7 8.3-4.3 17.8-4.3 27.8 0 15.5 3.8 30.1 10.6 43l-0.3-0.5c3.4 5.2 11.3 16.7 22 12.3 9.4-3.8 7.3-15.7 10-26.1 0.6-2.5 0.2-4.2 1.5-5.9v0.5c2.9 5.9 5.9 11.5 8.5 17.4 7.6 10.8 16.6 20.1 26.8 27.7l0.3 0.2c5 3.8 9 10.3 15.3 12.6v-0.6h-0.5q-2.1-2.4-4.7-4.1l-0.1-0.1c-3.9-3.8-7.5-7.9-10.8-12.2l-0.2-0.3c-8.1-11-15.9-23.4-22.6-36.5l-0.7-1.5c-3.4-6.6-6.3-13.7-9.1-20.1-1.2-2.5-1.2-6.3-3.3-7.5-3.7 4.1-7 8.7-9.8 13.7l-0.2 0.4c-3.2 9.3-5.3 20.1-5.9 31.3v0.3c-0.8 0.2-0.4 0-0.8 0.4-6.7-1.6-9-8.5-11.5-14.4-3.4-9.1-5.4-19.7-5.4-30.7 0-8.9 1.3-17.5 3.7-25.7l-0.1 0.7c1.4-4.4 7.7-18.2 5.2-22.4-1.3-4-5.4-6.2-7.7-9.5-2.8-3.8-5.3-8.2-7.3-12.8l-0.2-0.5c-5-11.7-7.5-24.6-13-36.3-3.2-6.1-6.7-11.4-10.6-16.3l0.2 0.3c-4.1-4.8-7.9-10.1-11.2-15.8l-0.3-0.5c-1-2.3-2.5-6-0.8-8.5 0.3-1.5 1.4-2.6 2.9-2.8 2.8-2.3 10.5 0.6 13.2 1.9 7.9 3 14.8 6.5 21.1 10.7l-0.4-0.3c2.9 2.1 6.1 6 9.8 7.1h4.4c6.7 1.4 14.2 0.4 20.5 2.2 11.5 3.9 21.4 8.8 30.6 14.7l-0.6-0.3c27.6 17.8 49.7 41.9 64.7 70.4l0.5 1c2.5 4.8 3.6 9.2 5.8 14.2 4.4 10.3 9.8 20.8 14.3 30.7 4.2 10.7 9.2 20 15.1 28.5l-0.3-0.5c3.2 4.4 15.7 6.7 21.3 9 6 2 10.7 4 15.3 6.2l-0.9-0.4c7.2 4.4 14.2 9.4 20.9 14.2 3.4 2.4 13.9 7.6 14.4 11.9zm-293.1 182.8c0.1 0.4 0.1 0.8 0.1 1.2 0 14-6.2 26.5-16.1 34.9h-0.1c-10.8 8.8-24.7 14.1-39.9 14.1q-1.7 0.1-3.5-0.1h0.2c-18.5-0.2-35.5-6.2-49.4-16.2l0.2 0.2 7.4-14.9c10.7 6 23.5 9.7 37 10.2h0.2c0.7 0.1 1.5 0.1 2.2 0.1 8.4 0 16.1-2.6 22.4-7l-0.1 0.1c5.7-4.4 9.3-11.2 9.3-18.8q0-0.3 0-0.5v0.1c0-10.3-7.1-19.1-20.2-26.4-12.1-6.7-36.3-20.6-36.3-20.6-12-7.4-19.8-20.4-19.8-35.2q0-0.8 0-1.6v0.1c0-0.5 0-1.1 0-1.6 0-12.9 5.7-24.4 14.6-32.3h0.1c9.6-8.1 22-13.1 35.6-13.1q1.4 0 2.6 0.1h-0.1q0.4 0 0.8 0c16 0 30.8 4.8 43.2 13l-0.3-0.2-6.6 14.9c-9.8-4.4-21.2-7.1-33.2-7.2q-1-0.1-2-0.1c-7 0-13.5 2.5-18.5 6.6v-0.1c-4.7 4-7.7 9.8-7.7 16.4 0 10.3 7.3 19.1 20.8 26.6 12.3 6.7 37.1 20.9 37.1 20.9 12.2 7.2 20.2 20.2 20.2 35.2q0 0.6 0 1.3c0 0 0 0-0.2-0.1zm154.7 52.1l-31.7-15.7c2.9-2.4 5.4-4.9 7.9-7.7v-0.1c12.8-17.3 20.6-39 20.6-62.6q0-4.1-0.4-8.1l0.1 0.4q0-85.8-67.3-85.8c-1-0.1-2.2-0.1-3.4-0.1-19.2 0-36.4 8.4-48.1 21.8l-0.1 0.1c-12.7 17.3-20.4 39-20.4 62.6q0 3.9 0.3 7.9l-0.1-0.4c-0.2 2.5-0.3 5.5-0.3 8.5 0 21.8 6.8 42.1 18.5 58.7l-0.2-0.3c11.2 11.9 27.1 19.4 44.7 19.4q2.5-0.1 4.9-0.2h-0.2c0.2 0 0.5 0 0.8 0 7.8 0 15.3-1.1 22.4-3.2l-0.5 0.1 41.4 24.2c0 0 11.2-19.5 11.1-19.5zm-102.9-38.8c-6.8-13.7-10.7-29.7-10.7-46.7q0-4 0.3-7.9l-0.1 0.4q0-65.3 39.7-65.4c0.6 0 1.4 0 2.2 0 11.9 0 22.3 6.2 28.2 15.5l0.1 0.1c6.8 13.6 10.8 29.6 10.8 46.5q0 3.9-0.3 7.7v-0.3q0 65.8-39.6 65.8c-0.7 0.1-1.5 0.1-2.3 0.1-11.9 0-22.3-6.2-28.2-15.5 0 0-0.1-0.2-0.1-0.3zm206.6 34.5h-82.2v-172.7h27.7v151.5h54.5zm-385-127.4c-7.2 52.1-23.6 99.1-47.6 141.2l1-1.9c-9.7 18.5-27.9 31.4-49.2 33.5h-0.3c-6.5-0.3-12.5-1.9-18-4.4l0.3 0.1v-15.4c3.5 0.5 7.4 0.8 11.4 0.8q0.4 0 0.7 0 0.6 0.1 1.3 0c7.2 0 13.9-2.6 19-7l-0.1 0.1c5.5-4.6 9-11.3 9.2-18.9-1.3-11-3.8-21-7.4-30.4l0.3 0.9-31.7-98.6h28.4l22.7 73.7c4.1 10.4 6.4 22.4 6.4 35q0 0.1 0 0.1c12.1-31.6 21.2-68.4 25.9-106.6l0.2-2.3zm-125.5 127.5h-28.9q-1.3-69-8.5-137.8h-0.2l-44.1 137.8h-22l-43.7-137.8h-0.3q-5.2 68.8-6.1 137.8h-26.4q2.5-92.1 12.8-172.8h35.9l41.7 127h0.2l42.1-127h34.2c7.6 63 12 120.6 13.3 172.8zm332.3-412.2q-0.1 0-0.2 0-4.5 0-8.6 1.1l0.2-0.1v0.4h0.4c2.2 3.2 4.4 6 6.8 8.6h-0.1c1.7 3.3 3.1 6.6 4.8 10l0.4-0.5c2.8-2.2 4.5-5.5 4.5-9.2q0-0.6-0.1-1.3v0.1c-1.2-1.5-1.4-3-2.5-4.4-1.2-2.1-3.9-3.1-5.6-4.7z"/>
</svg>