<svg version="1.2" xmlns="http://www.w3.org/2000/svg" viewBox="0 0 800 800" width="80" height="80">
	<title>php</title>
	<style>
		.s0 { fill: #5e17eb } 
	</style>
	<path class="s0" d="m400 189.6c-221 0-400 94.3-400 210.4 0 116.1 179 210.4 400 210.4 221 0 400-94.3 400-210.4 0-116.1-179-210.4-400-210.4zm-108.7 248.4c-8.6 8.3-19.2 14.6-30.5 18.4-11.2 3.5-25.5 5.4-42.8 5.4h-39.5l-10.8 56h-46l41.1-210.8h88.2c26.6 0 46 6.9 58.2 20.9 12.2 13.9 15.9 33.4 11 58.4-1.8 9.9-5.4 19.4-10.2 28.3-4.8 8.4-10.9 16.3-18.7 23.4zm-57.6-97.8h-31.5l-17.2 88.3h28q27.7 0 41.4-10.5c9-6.9 15.1-18.6 18.3-34.9 3-15.6 1.6-26.7-4.1-33.2-5.8-6.4-17.4-9.6-34.9-9.7zm191.8 121.6l18.1-93.3q3.1-15.9-2.3-21.8c-3.5-3.8-11.2-5.7-22.9-5.7h-36.4l-23.4 120.8h-45.7l41-210.9h45.6l-10.9 56.1h40.6c25.7 0 43.2 4.4 52.9 13.3 9.7 9 12.6 23.4 8.8 43.4l-19.1 98.2zm253.1-75.5c-1.8 9.9-5.2 19.4-10.2 28.2-4.7 8.5-10.9 16.3-18.6 23.5-8.7 8.2-19.1 14.5-30.6 18.3-11.2 3.5-25.5 5.5-42.8 5.5h-39.4l-10.9 56h-46l41.1-210.8h88.2c26.6 0 46 6.9 58.2 20.9 12.2 13.8 15.9 33.4 11 58.4zm-86.5-46.1h-31.4l-17.2 88.2h27.9q27.9 0 41.4-10.5c9.1-6.9 15.2-18.6 18.4-34.9 3.1-15.6 1.7-26.7-4.2-33.2-5.7-6.4-17.4-9.6-34.9-9.6z"/>
</svg>