<svg version="1.2" xmlns="http://www.w3.org/2000/svg" viewBox="0 0 800 800" width="80" height="80">
	<title>react</title>
	<style>
		.s0 { fill: #5e17eb } 
	</style>
	<path class="s0" d="m552.4 66.1c-61 9.3-113.9 39-152.5 81.8l-0.2 0.2c-38.9-42.8-91.7-72.2-151.3-81.1l-1.4-0.2c-0.3 0-0.7 0-1.1 0-12.3 0-23.8 3.2-33.8 8.8l0.4-0.1c-43 24.8-52.6 101.9-30.4 198.8-95.1 29.4-157 76.3-157 125.8 0 49.7 62.2 96.8 157.6 125.9-22 97.3-12.2 174.6 30.9 199.3 9.4 5.5 20.8 8.6 32.8 8.6q0.9 0.1 1.7 0h-0.1c61-9.3 113.9-38.9 152.5-81.7l0.2-0.3c38.8 42.8 91.7 72.3 151.2 81.2l1.4 0.2c0.4 0 0.9 0 1.3 0 12.2 0 23.7-3.2 33.6-8.8l-0.3 0.2c42.9-24.8 52.6-102 30.4-198.9 94.8-29.1 156.6-76.2 156.6-125.7 0-49.7-62.2-96.8-157.5-126 21.9-97.1 12.1-174.5-30.9-199.3-9.6-5.5-21-8.7-33.2-8.7q-0.5 0-1 0c0 0 0 0 0.1 0zm-337 469.2c27.1 6.8 60.1 12.7 93.8 16.3l3.3 0.3c20.6 28.3 41.4 53.2 63.8 76.7l-0.3-0.3c-32.7 36.6-77 62.2-127 71.5l-1.4 0.2q-0.1 0-0.3 0c-6.2 0-12-1.6-17.1-4.2l0.2 0.1c-20.8-11.9-29.9-57.3-22.8-115.7 1.6-14.4 4.4-29.5 7.8-44.9zm369.6-0.3c2.9 11.8 5.7 26.9 7.7 42.3l0.2 2.1c7.1 58.4-1.7 103.7-22.3 115.9-4.6 2.5-10.1 4-16 4q-0.8 0-1.7 0h0.1c-51.3-9.4-95.6-35-128.2-71.1l-0.2-0.2c22-23 42.7-47.9 61.6-74.1l1.5-2.1c36.9-3.9 70-9.8 102.2-17.9 0 0-4.9 1-4.9 1.1zm-340.4-93.3c6.3 12.2 12.8 24.4 20 36.7q10.8 18.2 22 35.7c-21.7-3.2-42.6-7.2-62.6-12.1 5.6-19.7 12.6-40 20.6-60.3zm310.7-0.7c8.3 20.6 15.3 41 21.1 60.9-20 4.9-41.1 9-63 12.1 7.5-11.7 15-23.8 22.1-36.1 7-12.2 13.6-24.7 19.8-36.9zm-364.8-133.7c10.9 36.9 22.6 67.8 36.2 97.6l-1.9-4.5c-11.6 25.1-23.1 55.8-32.6 87.5l-1.3 5.1c-17.6-5.4-31.8-10.8-45.7-16.7l2.9 1.1c-54.1-23.1-89.1-53.3-89.1-77.3 0-24 35-54.4 89.1-77.4 13.1-5.6 27.5-10.7 42.4-15.4zm418.5-0.1c15.1 4.7 29.5 9.9 42.9 15.5 54.1 23.2 89.1 53.4 89.1 77.4-0.1 24-35.1 54.3-89.2 77.3-13.2 5.6-27.5 10.7-42.4 15.4-11-37.1-22.7-67.9-36.2-97.8l1.8 4.7c11.7-25.1 23.2-55.8 32.6-87.4 0 0 1.4-5.2 1.4-5.1zm-95.7-21.1c21.7 3.2 42.6 7.2 62.6 12.1-5.6 19.7-12.6 40-20.6 60.4-6.2-12.2-12.8-24.4-20-36.7-7-12.2-14.5-24.2-22-35.8zm-226.8 0c-7.5 11.8-15 23.8-22 36.3-7.1 12.1-13.6 24.4-19.9 36.6-8.3-20.5-15.3-40.9-21.1-60.8 20-4.7 41.1-8.8 63-12.1zm113.5-8c23.1 0 46.2 1.1 68.8 2.9q19 27.3 37 58.1 17.4 30 31.8 60.8c-9.7 20.5-20.2 41-31.7 61-11.9 20.6-24.2 40.2-36.9 58.4-22.7 2-45.8 3-69 3-23.2 0-46.2-1.1-68.8-2.9-12.7-18.1-25.1-37.6-37-58q-17.4-30-31.8-60.8c9.5-20.6 20.2-41.1 31.7-61.1 11.8-20.6 24.1-40.2 36.8-58.3 22.8-2 45.8-3.1 69.1-3.1zm-0.5-82c14.5 15 28.4 31 41.5 47.5l1 1.4c-13.7-0.6-27.8-1.1-42-1.1-14.4 0-28.6 0.3-42.5 1.1 13.9-18 27.6-33.9 42.2-49.1 0 0-0.2 0.2-0.2 0.2zm-152.5-95.3c51.3 9.4 95.5 35 128.2 71.1l0.2 0.2c-22 23.1-42.7 47.9-61.6 74.2l-1.5 2.1c-36.9 3.8-69.9 9.7-102.1 17.8l4.9-1c-3.5-15.3-6.1-30.2-8-44.4-7.1-58.3 1.7-103.7 22.3-115.8 5.2-2.4 11.2-3.9 17.6-4.1 0 0 0 0 0-0.1zm305.3-0.6v0.2q0.4 0 1.1 0c5.9 0 11.6 1.4 16.5 4l-0.2-0.1c20.8 12 29.8 57.4 22.8 115.8-1.7 14.3-4.4 29.5-7.8 45-27.1-7-60.1-12.9-93.9-16.5l-3.1-0.2c-20.7-28.4-41.5-53.3-63.9-76.8l0.3 0.3c32.7-36.5 76.9-62.2 126.8-71.5 0 0 1.4-0.2 1.4-0.2zm-194.5 455.1c13.8 0.6 27.8 1 42.1 1 14.3 0 28.5-0.3 42.5-1-14 18-27.7 33.9-42.3 49.1l0.2-0.2c-14.5-15-28.3-31-41.5-47.6zm111.9-155.1c0 38.5-31.3 69.8-69.9 69.8-38.5 0-69.8-31.3-69.8-69.8 0-38.6 31.3-69.9 69.8-69.9 19.3 0 36.8 7.8 49.4 20.5 12.7 12.6 20.5 30.1 20.5 49.4z"/>
</svg>