<svg version="1.2" xmlns="http://www.w3.org/2000/svg" viewBox="0 0 800 800" width="80" height="80">
	<title>nodejs02</title>
	<style>
		.s0 { fill: #5e17eb } 
	</style>
	<g id="5151e0c8492e5103c096af88a51f17e3">
		<path class="s0" d="m754 231v337.7c0 21.9-11.8 42.3-30.7 53.4l-292.6 168.9c-9.3 5.4-19.9 8.2-30.8 8.2-10.7 0-21.3-2.8-30.7-8.2l-97.7-57.8c-14.5-8.1-7.4-11-2.6-12.7 19.5-6.7 23.4-8.3 44.2-20.1 2.1-1.2 5-0.7 7.2 0.5l75.1 44.6c2.7 1.5 6.5 1.5 9 0l292.6-168.9c2.8-1.5 4.5-4.6 4.5-7.9v-337.7c0-3.3-1.7-6.4-4.5-8l-292.5-168.8c-2.7-1.5-6.3-1.5-9 0l-292.4 168.8c-2.9 1.6-4.7 4.8-4.7 8v337.7c0 3.3 1.8 6.3 4.6 7.8l80.2 46.4c43.5 21.7 70.1-3.9 70.1-29.7v-333.3c0-4.8 3.8-8.5 8.5-8.5h37.1c4.7 0 8.5 3.7 8.5 8.5v333.3c0 58.1-31.6 91.4-86.6 91.4-16.9 0-30.3 0-67.4-18.3l-76.8-44.2c-18.9-11-30.6-31.5-30.6-53.4v-337.7c0-21.9 11.7-42.4 30.6-53.3l292.6-169.1c18.5-10.4 43.2-10.4 61.5 0l292.6 169.1c18.9 11 30.7 31.4 30.7 53.3zm-252.2 305.5c-87.3 0-106.5-21.9-112.9-65.4-0.8-4.6-4.7-8-9.5-8h-42.7c-5.3 0-9.5 4.2-9.5 9.5 0 55.6 30.2 121.8 174.6 121.8 104.6 0 164.5-41.1 164.5-113 0-71.3-48.2-90.3-149.5-103.7-102.5-13.5-112.9-20.5-112.9-44.5 0-19.8 8.8-46.2 84.7-46.2 67.8 0 92.8 14.6 103 60.2 0.9 4.3 4.8 7.5 9.3 7.5h42.8c2.7 0 5.2-1.2 7-3.1 1.8-2 2.8-4.6 2.5-7.3-6.6-78.7-58.9-115.4-164.6-115.4-94.1 0-150.2 39.7-150.2 106.3 0 72.2 55.8 92.2 146.1 101.1 108 10.6 116.4 26.3 116.4 47.6 0 36.9-29.6 52.6-99.1 52.6z"/>
	</g>
</svg>