<svg version="1.2" xmlns="http://www.w3.org/2000/svg" viewBox="0 0 800 800" width="80" height="80">
	<title>python</title>
	<style>
		.s0 { fill: #5e17eb } 
	</style>
	<g id="5151e0c8492e5103c096af88a51ec286">
		<path class="s0" d="m304.3 385.7h190.2c53 0 95.3-43.6 95.3-96.7v-181.4c0-51.6-43.6-90.4-95.3-99-32.7-5.5-66.6-8-99.2-7.8-32.6 0.1-63.7 2.9-91 7.8-80.6 14.2-95.3 44-95.3 99v72.6h190.5v24.2h-190.5-71.4c-55.4 0-103.9 33.2-119 96.5-17.5 72.6-18.3 117.9 0 193.6 13.5 56.4 45.8 96.6 101.2 96.6h65.5v-87c0-62.9 54.4-118.4 119-118.4zm-12-253.9c-19.8 0-35.8-16.2-35.8-36.2 0-20.1 16-36.4 35.8-36.4 19.7 0 35.7 16.3 35.7 36.4 0 20-16 36.2-35.7 36.2zm488 169.1c-13.7-55.1-39.9-96.5-95.3-96.5h-71.5v84.6c0 65.5-55.6 120.7-119 120.7h-190.2c-52.1 0-95.3 44.6-95.3 96.8v181.4c0 51.6 44.9 82 95.3 96.8 60.3 17.7 118.1 20.9 190.2 0 48-13.9 95.3-41.8 95.3-96.8v-72.6h-190.3v-24.2h190.3 95.2c55.4 0 76-38.6 95.3-96.6 19.8-59.6 19-117 0-193.6zm-273.8 362.8c19.8 0 35.8 16.2 35.8 36.2 0 20.1-16 36.4-35.8 36.4-19.7 0-35.7-16.3-35.7-36.4 0-20 16-36.2 35.7-36.2z"/>
	</g>
</svg>